<svg version="1.1" viewBox="0.0 0.0 600.0 371.0" fill="none" stroke="none" stroke-linecap="square" stroke-miterlimit="10" width="600" height="371" xmlns:xlink="http://www.w3.org/1999/xlink" xmlns="http://www.w3.org/2000/svg"><path fill="#ffffff" d="M0 0L600.0 0L600.0 371.0L0 371.0L0 0Z" fill-rule="nonzero"/><path stroke="#333333" stroke-width="1.0" stroke-linecap="butt" d="M52.5 332.5L581.5 332.5" fill-rule="nonzero"/><path stroke="#cccccc" stroke-width="1.0" stroke-linecap="butt" d="M52.5 251.5L581.5 251.5" fill-rule="nonzero"/><path stroke="#cccccc" stroke-width="1.0" stroke-linecap="butt" d="M52.5 169.5L581.5 169.5" fill-rule="nonzero"/><path stroke="#cccccc" stroke-width="1.0" stroke-linecap="butt" d="M52.5 88.5L581.5 88.5" fill-rule="nonzero"/><clipPath id="id_0"><path d="M52.55 88.28333L581.45 88.28333L581.45 332.45L52.55 332.45L52.55 88.28333Z" clip-rule="nonzero"/></clipPath><path stroke="#000000" stroke-width="0.0" stroke-linecap="butt" stroke-opacity="0.0" clip-path="url(#id_0)" d="M158.0 332.0L108.0 332.0L108.0 319.0C108.0 317.89542 108.89543 317.0 110.0 317.0L156.0 317.0C157.10457 317.0 158.0 317.89542 158.0 319.0Z" fill-rule="nonzero"/><path fill="#4285f4" clip-path="url(#id_0)" d="M158.0 332.0L108.0 332.0L108.0 319.0C108.0 317.89542 108.89543 317.0 110.0 317.0L156.0 317.0C157.10457 317.0 158.0 317.89542 158.0 319.0Z" fill-rule="nonzero"/><path stroke="#000000" stroke-width="0.0" stroke-linecap="butt" stroke-opacity="0.0" clip-path="url(#id_0)" d="M316.0 332.0L266.0 332.0L266.0 314.0C266.0 312.89542 266.89542 312.0 268.0 312.0L314.0 312.0C315.10458 312.0 316.0 312.89542 316.0 314.0Z" fill-rule="nonzero"/><path fill="#4285f4" clip-path="url(#id_0)" d="M316.0 332.0L266.0 332.0L266.0 314.0C266.0 312.89542 266.89542 312.0 268.0 312.0L314.0 312.0C315.10458 312.0 316.0 312.89542 316.0 314.0Z" fill-rule="nonzero"/><path stroke="#000000" stroke-width="0.0" stroke-linecap="butt" stroke-opacity="0.0" clip-path="url(#id_0)" d="M474.0 332.0L424.0 332.0L424.0 123.0C424.0 121.89543 424.89542 121.0 426.0 121.0L472.0 121.0C473.10458 121.0 474.0 121.89543 474.0 123.0Z" fill-rule="nonzero"/><path fill="#4285f4" clip-path="url(#id_0)" d="M474.0 332.0L424.0 332.0L424.0 123.0C424.0 121.89543 424.89542 121.0 426.0 121.0L472.0 121.0C473.10458 121.0 474.0 121.89543 474.0 123.0Z" fill-rule="nonzero"/><path stroke="#000000" stroke-width="0.0" stroke-linecap="butt" stroke-opacity="0.0" clip-path="url(#id_0)" d="M209.0 332.0L159.0 332.0L159.0 324.0C159.0 322.89542 159.89543 322.0 161.0 322.0L207.0 322.0C208.10457 322.0 209.0 322.89542 209.0 324.0Z" fill-rule="nonzero"/><path fill="#ea4335" clip-path="url(#id_0)" d="M209.0 332.0L159.0 332.0L159.0 324.0C159.0 322.89542 159.89543 322.0 161.0 322.0L207.0 322.0C208.10457 322.0 209.0 322.89542 209.0 324.0Z" fill-rule="nonzero"/><path stroke="#000000" stroke-width="0.0" stroke-linecap="butt" stroke-opacity="0.0" clip-path="url(#id_0)" d="M367.0 332.0L317.0 332.0L317.0 321.0C317.0 319.89542 317.89542 319.0 319.0 319.0L365.0 319.0C366.10458 319.0 367.0 319.89542 367.0 321.0Z" fill-rule="nonzero"/><path fill="#ea4335" clip-path="url(#id_0)" d="M367.0 332.0L317.0 332.0L317.0 321.0C317.0 319.89542 317.89542 319.0 319.0 319.0L365.0 319.0C366.10458 319.0 367.0 319.89542 367.0 321.0Z" fill-rule="nonzero"/><path stroke="#000000" stroke-width="0.0" stroke-linecap="butt" stroke-opacity="0.0" clip-path="url(#id_0)" d="M525.0 332.0L475.0 332.0L475.0 245.0C475.0 243.89543 475.89542 243.0 477.0 243.0L523.0 243.0C524.10455 243.0 525.0 243.89543 525.0 245.0Z" fill-rule="nonzero"/><path fill="#ea4335" clip-path="url(#id_0)" d="M525.0 332.0L475.0 332.0L475.0 245.0C475.0 243.89543 475.89542 243.0 477.0 243.0L523.0 243.0C524.10455 243.0 525.0 243.89543 525.0 245.0Z" fill-rule="nonzero"/><path fill="#000000" d="M40.05 332.21564Q40.05 330.6844 40.3625 329.7625Q40.675 328.825 41.284374 328.325Q41.909374 327.825 42.846874 327.825Q43.534374 327.825 44.05 328.10626Q44.58125 328.3875 44.925 328.91876Q45.26875 329.4344 45.45625 330.1844Q45.64375 330.9344 45.64375 332.21564Q45.64375 333.73126 45.33125 334.65314Q45.034374 335.575 44.409374 336.09064Q43.8 336.59064 42.846874 336.59064Q41.6125 336.59064 40.89375 335.7Q40.05 334.6375 40.05 332.21564ZM41.128124 332.21564Q41.128124 334.325 41.628124 335.02814Q42.128124 335.73126 42.846874 335.73126Q43.58125 335.73126 44.065624 335.02814Q44.565624 334.325 44.565624 332.21564Q44.565624 330.09064 44.065624 329.40314Q43.58125 328.7 42.83125 328.7Q42.1125 328.7 41.675 329.3094Q41.128124 330.09064 41.128124 332.21564Z" fill-rule="nonzero"/><path fill="#000000" d="M24.596874 254.04549L24.596874 255.06111L18.909374 255.06111Q18.909374 254.68611 19.034374 254.32674Q19.253124 253.74861 19.721874 253.18611Q20.20625 252.62361 21.1125 251.88924Q22.51875 250.73299 23.003124 250.06111Q23.503124 249.38924 23.503124 248.79549Q23.503124 248.17049 23.05 247.74861Q22.596874 247.31111 21.878124 247.31111Q21.1125 247.31111 20.659374 247.76424Q20.20625 248.21736 20.190624 249.02986L19.1125 248.92049Q19.221874 247.70174 19.940624 247.07674Q20.675 246.43611 21.909374 246.43611Q23.14375 246.43611 23.8625 247.12361Q24.58125 247.81111 24.58125 248.82674Q24.58125 249.34236 24.3625 249.84236Q24.159374 250.32674 23.659374 250.88924Q23.175 251.43611 22.05 252.38924Q21.096874 253.18611 20.815624 253.48299Q20.55 253.76424 20.378124 254.04549L24.596874 254.04549ZM26.05 250.82674Q26.05 249.29549 26.3625 248.37361Q26.675 247.43611 27.284374 246.93611Q27.909374 246.43611 28.846874 246.43611Q29.534374 246.43611 30.05 246.71736Q30.58125 246.99861 30.925 247.52986Q31.26875 248.04549 31.45625 248.79549Q31.64375 249.54549 31.64375 250.82674Q31.64375 252.34236 31.33125 253.26424Q31.034374 254.18611 30.409374 254.70174Q29.8 255.20174 28.846874 255.20174Q27.6125 255.20174 26.89375 254.31111Q26.05 253.24861 26.05 250.82674ZM27.128124 250.82674Q27.128124 252.93611 27.628124 253.63924Q28.128124 254.34236 28.846874 254.34236Q29.58125 254.34236 30.065624 253.63924Q30.565624 252.93611 30.565624 250.82674Q30.565624 248.70174 30.065624 248.01424Q29.58125 247.31111 28.83125 247.31111Q28.1125 247.31111 27.675 247.92049Q27.128124 248.70174 27.128124 250.82674ZM33.05 250.82674Q33.05 249.29549 33.3625 248.37361Q33.675 247.43611 34.284374 246.93611Q34.909374 246.43611 35.846874 246.43611Q36.534374 246.43611 37.05 246.71736Q37.58125 246.99861 37.925 247.52986Q38.26875 248.04549 38.45625 248.79549Q38.64375 249.54549 38.64375 250.82674Q38.64375 252.34236 38.33125 253.26424Q38.034374 254.18611 37.409374 254.70174Q36.8 255.20174 35.846874 255.20174Q34.6125 255.20174 33.89375 254.31111Q33.05 253.24861 33.05 250.82674ZM34.128124 250.82674Q34.128124 252.93611 34.628124 253.63924Q35.128124 254.34236 35.846874 254.34236Q36.58125 254.34236 37.065624 253.63924Q37.565624 252.93611 37.565624 250.82674Q37.565624 248.70174 37.065624 248.01424Q36.58125 247.31111 35.83125 247.31111Q35.1125 247.31111 34.675 247.92049Q34.128124 248.70174 34.128124 250.82674ZM40.05 250.82674Q40.05 249.29549 40.3625 248.37361Q40.675 247.43611 41.284374 246.93611Q41.909374 246.43611 42.846874 246.43611Q43.534374 246.43611 44.05 246.71736Q44.58125 246.99861 44.925 247.52986Q45.26875 248.04549 45.45625 248.79549Q45.64375 249.54549 45.64375 250.82674Q45.64375 252.34236 45.33125 253.26424Q45.034374 254.18611 44.409374 254.70174Q43.8 255.20174 42.846874 255.20174Q41.6125 255.20174 40.89375 254.31111Q40.05 253.24861 40.05 250.82674ZM41.128124 250.82674Q41.128124 252.93611 41.628124 253.63924Q42.128124 254.34236 42.846874 254.34236Q43.58125 254.34236 44.065624 253.63924Q44.565624 252.93611 44.565624 250.82674Q44.565624 248.70174 44.065624 248.01424Q43.58125 247.31111 42.83125 247.31111Q42.1125 247.31111 41.675 247.92049Q41.128124 248.70174 41.128124 250.82674Z" fill-rule="nonzero"/><path fill="#000000" d="M22.425 173.67223L22.425 171.60973L18.70625 171.60973L18.70625 170.64098L22.628124 165.07848L23.4875 165.07848L23.4875 170.64098L24.64375 170.64098L24.64375 171.60973L23.4875 171.60973L23.4875 173.67223L22.425 173.67223ZM22.425 170.64098L22.425 166.7816L19.7375 170.64098L22.425 170.64098ZM26.05 169.43785Q26.05 167.9066 26.3625 166.98473Q26.675 166.04723 27.284374 165.54723Q27.909374 165.04723 28.846874 165.04723Q29.534374 165.04723 30.05 165.32848Q30.58125 165.60973 30.925 166.14098Q31.26875 166.6566 31.45625 167.4066Q31.64375 168.1566 31.64375 169.43785Q31.64375 170.95348 31.33125 171.87535Q31.034374 172.79723 30.409374 173.31285Q29.8 173.81285 28.846874 173.81285Q27.6125 173.81285 26.89375 172.92223Q26.05 171.85973 26.05 169.43785ZM27.128124 169.43785Q27.128124 171.54723 27.628124 172.25035Q28.128124 172.95348 28.846874 172.95348Q29.58125 172.95348 30.065624 172.25035Q30.565624 171.54723 30.565624 169.43785Q30.565624 167.31285 30.065624 166.62535Q29.58125 165.92223 28.83125 165.92223Q28.1125 165.92223 27.675 166.5316Q27.128124 167.31285 27.128124 169.43785ZM33.05 169.43785Q33.05 167.9066 33.3625 166.98473Q33.675 166.04723 34.284374 165.54723Q34.909374 165.04723 35.846874 165.04723Q36.534374 165.04723 37.05 165.32848Q37.58125 165.60973 37.925 166.14098Q38.26875 166.6566 38.45625 167.4066Q38.64375 168.1566 38.64375 169.43785Q38.64375 170.95348 38.33125 171.87535Q38.034374 172.79723 37.409374 173.31285Q36.8 173.81285 35.846874 173.81285Q34.6125 173.81285 33.89375 172.92223Q33.05 171.85973 33.05 169.43785ZM34.128124 169.43785Q34.128124 171.54723 34.628124 172.25035Q35.128124 172.95348 35.846874 172.95348Q36.58125 172.95348 37.065624 172.25035Q37.565624 171.54723 37.565624 169.43785Q37.565624 167.31285 37.065624 166.62535Q36.58125 165.92223 35.83125 165.92223Q35.1125 165.92223 34.675 166.5316Q34.128124 167.31285 34.128124 169.43785ZM40.05 169.43785Q40.05 167.9066 40.3625 166.98473Q40.675 166.04723 41.284374 165.54723Q41.909374 165.04723 42.846874 165.04723Q43.534374 165.04723 44.05 165.32848Q44.58125 165.60973 44.925 166.14098Q45.26875 166.6566 45.45625 167.4066Q45.64375 168.1566 45.64375 169.43785Q45.64375 170.95348 45.33125 171.87535Q45.034374 172.79723 44.409374 173.31285Q43.8 173.81285 42.846874 173.81285Q41.6125 173.81285 40.89375 172.92223Q40.05 171.85973 40.05 169.43785ZM41.128124 169.43785Q41.128124 171.54723 41.628124 172.25035Q42.128124 172.95348 42.846874 172.95348Q43.58125 172.95348 44.065624 172.25035Q44.565624 171.54723 44.565624 169.43785Q44.565624 167.31285 44.065624 166.62535Q43.58125 165.92223 42.83125 165.92223Q42.1125 165.92223 41.675 166.5316Q41.128124 167.31285 41.128124 169.43785Z" fill-rule="nonzero"/><path fill="#000000" d="M24.51875 85.79896L23.471874 85.87708Q23.33125 85.25208 23.08125 84.97083Q22.64375 84.51771 22.01875 84.51771Q21.51875 84.51771 21.128124 84.79896Q20.64375 85.17396 20.346874 85.87708Q20.065624 86.56458 20.05 87.84583Q20.425 87.26771 20.971874 86.98646Q21.534374 86.70521 22.14375 86.70521Q23.190624 86.70521 23.925 87.48646Q24.675 88.26771 24.675 89.48646Q24.675 90.29896 24.315624 91.00208Q23.971874 91.68958 23.3625 92.06458Q22.753124 92.42396 21.9875 92.42396Q20.659374 92.42396 19.83125 91.45521Q19.003124 90.48646 19.003124 88.26771Q19.003124 85.76771 19.925 84.64271Q20.721874 83.65833 22.08125 83.65833Q23.096874 83.65833 23.7375 84.23646Q24.39375 84.79896 24.51875 85.79896ZM20.221874 89.50208Q20.221874 90.04896 20.440624 90.54896Q20.675 91.03333 21.08125 91.29896Q21.503124 91.56458 21.971874 91.56458Q22.628124 91.56458 23.1125 91.03333Q23.596874 90.48646 23.596874 89.56458Q23.596874 88.67396 23.1125 88.15833Q22.64375 87.64271 21.925 87.64271Q21.20625 87.64271 20.70625 88.15833Q20.221874 88.67396 20.221874 89.50208ZM26.05 88.04896Q26.05 86.51771 26.3625 85.59583Q26.675 84.65833 27.284374 84.15833Q27.909374 83.65833 28.846874 83.65833Q29.534374 83.65833 30.05 83.93958Q30.58125 84.22083 30.925 84.75208Q31.26875 85.26771 31.45625 86.01771Q31.64375 86.76771 31.64375 88.04896Q31.64375 89.56458 31.33125 90.48646Q31.034374 91.40833 30.409374 91.92396Q29.8 92.42396 28.846874 92.42396Q27.6125 92.42396 26.89375 91.53333Q26.05 90.47083 26.05 88.04896ZM27.128124 88.04896Q27.128124 90.15833 27.628124 90.86146Q28.128124 91.56458 28.846874 91.56458Q29.58125 91.56458 30.065624 90.86146Q30.565624 90.15833 30.565624 88.04896Q30.565624 85.92396 30.065624 85.23646Q29.58125 84.53333 28.83125 84.53333Q28.1125 84.53333 27.675 85.14271Q27.128124 85.92396 27.128124 88.04896ZM33.05 88.04896Q33.05 86.51771 33.3625 85.59583Q33.675 84.65833 34.284374 84.15833Q34.909374 83.65833 35.846874 83.65833Q36.534374 83.65833 37.05 83.93958Q37.58125 84.22083 37.925 84.75208Q38.26875 85.26771 38.45625 86.01771Q38.64375 86.76771 38.64375 88.04896Q38.64375 89.56458 38.33125 90.48646Q38.034374 91.40833 37.409374 91.92396Q36.8 92.42396 35.846874 92.42396Q34.6125 92.42396 33.89375 91.53333Q33.05 90.47083 33.05 88.04896ZM34.128124 88.04896Q34.128124 90.15833 34.628124 90.86146Q35.128124 91.56458 35.846874 91.56458Q36.58125 91.56458 37.065624 90.86146Q37.565624 90.15833 37.565624 88.04896Q37.565624 85.92396 37.065624 85.23646Q36.58125 84.53333 35.83125 84.53333Q35.1125 84.53333 34.675 85.14271Q34.128124 85.92396 34.128124 88.04896ZM40.05 88.04896Q40.05 86.51771 40.3625 85.59583Q40.675 84.65833 41.284374 84.15833Q41.909374 83.65833 42.846874 83.65833Q43.534374 83.65833 44.05 83.93958Q44.58125 84.22083 44.925 84.75208Q45.26875 85.26771 45.45625 86.01771Q45.64375 86.76771 45.64375 88.04896Q45.64375 89.56458 45.33125 90.48646Q45.034374 91.40833 44.409374 91.92396Q43.8 92.42396 42.846874 92.42396Q41.6125 92.42396 40.89375 91.53333Q40.05 90.47083 40.05 88.04896ZM41.128124 88.04896Q41.128124 90.15833 41.628124 90.86146Q42.128124 91.56458 42.846874 91.56458Q43.58125 91.56458 44.065624 90.86146Q44.565624 90.15833 44.565624 88.04896Q44.565624 85.92396 44.065624 85.23646Q43.58125 84.53333 42.83125 84.53333Q42.1125 84.53333 41.675 85.14271Q41.128124 85.92396 41.128124 88.04896Z" fill-rule="nonzero"/><path fill="#000000" d="M142.16628 346.6844L143.22878 346.59064Q143.3069 347.2469 143.58815 347.65314Q143.8694 348.0594 144.44753 348.325Q145.04128 348.575 145.77565 348.575Q146.41628 348.575 146.91628 348.3875Q147.41628 348.1844 147.65065 347.85626Q147.90065 347.5125 147.90065 347.1219Q147.90065 346.71564 147.66628 346.41876Q147.4319 346.10626 146.90065 345.90314Q146.54128 345.7625 145.35378 345.48126Q144.1819 345.2 143.71315 344.95Q143.08815 344.6219 142.79128 344.15314Q142.4944 343.66876 142.4944 343.075Q142.4944 342.4344 142.85378 341.8719Q143.22878 341.29376 143.9319 341.0125Q144.65065 340.71564 145.51003 340.71564Q146.46315 340.71564 147.19753 341.02814Q147.9319 341.325 148.32253 341.9344Q148.71315 342.52814 148.7444 343.27814L147.65065 343.35626Q147.5569 342.54376 147.04128 342.1375Q146.54128 341.71564 145.5569 341.71564Q144.52565 341.71564 144.0569 342.09064Q143.58815 342.46564 143.58815 342.9969Q143.58815 343.46564 143.91628 343.7625Q144.2444 344.0594 145.6194 344.3719Q147.01003 344.6844 147.52565 344.91876Q148.27565 345.27814 148.63503 345.8094Q148.9944 346.325 148.9944 347.02814Q148.9944 347.71564 148.60378 348.325Q148.21315 348.91876 147.47878 349.2625Q146.7444 349.59064 145.82253 349.59064Q144.65065 349.59064 143.85378 349.2625Q143.07253 348.91876 142.6194 348.23126Q142.1819 347.54376 142.16628 346.6844ZM150.41628 342.075L150.41628 340.85626L151.47878 340.85626L151.47878 342.075L150.41628 342.075ZM150.41628 349.45L150.41628 343.23126L151.47878 343.23126L151.47878 349.45L150.41628 349.45ZM153.21315 349.96564L154.2444 350.1219Q154.3069 350.59064 154.60378 350.8094Q154.9944 351.10626 155.66628 351.10626Q156.40065 351.10626 156.79128 350.8094Q157.19753 350.5125 157.33815 349.9969Q157.4319 349.66876 157.41628 348.6375Q156.72878 349.45 155.69753 349.45Q154.41628 349.45 153.71315 348.52814Q153.01003 347.59064 153.01003 346.3094Q153.01003 345.41876 153.32253 344.66876Q153.65065 343.90314 154.26003 343.4969Q154.8694 343.09064 155.69753 343.09064Q156.8069 343.09064 157.52565 343.98126L157.52565 343.23126L158.4944 343.23126L158.4944 348.60626Q158.4944 350.0594 158.19753 350.66876Q157.90065 351.27814 157.26003 351.6219Q156.6194 351.98126 155.6819 351.98126Q154.57253 351.98126 153.88503 351.48126Q153.19753 350.98126 153.21315 349.96564ZM154.08815 346.23126Q154.08815 347.45 154.57253 348.0125Q155.0569 348.575 155.79128 348.575Q156.52565 348.575 157.01003 348.0125Q157.51003 347.45 157.51003 346.2625Q157.51003 345.1219 156.9944 344.54376Q156.4944 343.96564 155.77565 343.96564Q155.07253 343.96564 154.57253 344.54376Q154.08815 345.10626 154.08815 346.23126ZM160.41628 349.45L160.41628 343.23126L161.35378 343.23126L161.35378 344.10626Q162.04128 343.09064 163.33815 343.09064Q163.90065 343.09064 164.3694 343.29376Q164.85378 343.4969 165.08815 343.825Q165.32253 344.15314 165.41628 344.59064Q165.46315 344.8875 165.46315 345.6219L165.46315 349.45L164.41628 349.45L164.41628 345.66876Q164.41628 345.0125 164.29128 344.7Q164.16628 344.3875 163.85378 344.2Q163.54128 343.9969 163.1194 343.9969Q162.44753 343.9969 161.94753 344.4344Q161.46315 344.85626 161.46315 346.04376L161.46315 349.45L160.41628 349.45ZM171.47878 348.6844Q170.88503 349.1844 170.33815 349.3875Q169.8069 349.59064 169.1819 349.59064Q168.15065 349.59064 167.60378 349.09064Q167.0569 348.59064 167.0569 347.8094Q167.0569 347.35626 167.26003 346.98126Q167.46315 346.59064 167.8069 346.3719Q168.15065 346.1375 168.57253 346.02814Q168.8694 345.9344 169.51003 345.85626Q170.77565 345.71564 171.38503 345.4969Q171.38503 345.27814 171.38503 345.23126Q171.38503 344.575 171.08815 344.3094Q170.6819 343.96564 169.88503 343.96564Q169.15065 343.96564 168.79128 344.23126Q168.4319 344.48126 168.26003 345.1375L167.22878 344.9969Q167.3694 344.34064 167.69753 343.9344Q168.02565 343.52814 168.63503 343.3094Q169.2444 343.09064 170.04128 343.09064Q170.83815 343.09064 171.33815 343.27814Q171.83815 343.46564 172.07253 343.7469Q172.3069 344.02814 172.40065 344.46564Q172.44753 344.73126 172.44753 345.4344L172.44753 346.84064Q172.44753 348.3094 172.51003 348.7Q172.58815 349.09064 172.79128 349.45L171.6819 349.45Q171.52565 349.1219 171.47878 348.6844ZM171.38503 346.325Q170.8069 346.5594 169.66628 346.73126Q169.01003 346.825 168.7444 346.95Q168.47878 347.0594 168.32253 347.27814Q168.1819 347.4969 168.1819 347.77814Q168.1819 348.2 168.4944 348.48126Q168.82253 348.7625 169.4319 348.7625Q170.04128 348.7625 170.51003 348.4969Q170.9944 348.23126 171.21315 347.7625Q171.38503 347.40314 171.38503 346.71564L171.38503 346.325ZM174.38503 349.45L174.38503 340.85626L175.44753 340.85626L175.44753 349.45L174.38503 349.45Z" fill-rule="nonzero"/><path fill="#000000" d="M296.04688 346.6844L297.10938 346.59064Q297.1875 347.2469 297.46875 347.65314Q297.75 348.0594 298.32812 348.325Q298.92188 348.575 299.65625 348.575Q300.29688 348.575 300.79688 348.3875Q301.29688 348.1844 301.53125 347.85626Q301.78125 347.5125 301.78125 347.1219Q301.78125 346.71564 301.54688 346.41876Q301.3125 346.10626 300.78125 345.90314Q300.42188 345.7625 299.23438 345.48126Q298.0625 345.2 297.59375 344.95Q296.96875 344.6219 296.67188 344.15314Q296.375 343.66876 296.375 343.075Q296.375 342.4344 296.73438 341.8719Q297.10938 341.29376 297.8125 341.0125Q298.53125 340.71564 299.39062 340.71564Q300.34375 340.71564 301.07812 341.02814Q301.8125 341.325 302.20312 341.9344Q302.59375 342.52814 302.625 343.27814L301.53125 343.35626Q301.4375 342.54376 300.92188 342.1375Q300.42188 341.71564 299.4375 341.71564Q298.40625 341.71564 297.9375 342.09064Q297.46875 342.46564 297.46875 342.9969Q297.46875 343.46564 297.79688 343.7625Q298.125 344.0594 299.5 344.3719Q300.89062 344.6844 301.40625 344.91876Q302.15625 345.27814 302.51562 345.8094Q302.875 346.325 302.875 347.02814Q302.875 347.71564 302.48438 348.325Q302.09375 348.91876 301.35938 349.2625Q300.625 349.59064 299.70312 349.59064Q298.53125 349.59064 297.73438 349.2625Q296.95312 348.91876 296.5 348.23126Q296.0625 347.54376 296.04688 346.6844ZM306.59375 348.5125L306.75 349.4344Q306.29688 349.52814 305.95312 349.52814Q305.375 349.52814 305.0625 349.35626Q304.75 349.16876 304.60938 348.8719Q304.48438 348.575 304.48438 347.6219L304.48438 344.04376L303.71875 344.04376L303.71875 343.23126L304.48438 343.23126L304.48438 341.6844L305.53125 341.0594L305.53125 343.23126L306.59375 343.23126L306.59375 344.04376L305.53125 344.04376L305.53125 347.6844Q305.53125 348.1375 305.57812 348.2625Q305.64062 348.3875 305.76562 348.46564Q305.89062 348.54376 306.125 348.54376Q306.3125 348.54376 306.59375 348.5125ZM306.90625 346.34064Q306.90625 344.60626 307.85938 343.77814Q308.65625 343.09064 309.8125 343.09064Q311.09375 343.09064 311.90625 343.9344Q312.73438 344.7625 312.73438 346.2469Q312.73438 347.45 312.375 348.1375Q312.01562 348.825 311.3125 349.21564Q310.625 349.59064 309.8125 349.59064Q308.51562 349.59064 307.70312 348.7625Q306.90625 347.91876 306.90625 346.34064ZM307.98438 346.34064Q307.98438 347.52814 308.5 348.1219Q309.03125 348.71564 309.8125 348.71564Q310.60938 348.71564 311.125 348.1219Q311.64062 347.52814 311.64062 346.3094Q311.64062 345.15314 311.10938 344.5594Q310.59375 343.96564 309.8125 343.96564Q309.03125 343.96564 308.5 344.5594Q307.98438 345.1375 307.98438 346.34064ZM314.28125 349.45L314.28125 343.23126L315.23438 343.23126L315.23438 344.16876Q315.59375 343.5125 315.89062 343.3094Q316.20312 343.09064 316.57812 343.09064Q317.10938 343.09064 317.65625 343.41876L317.29688 344.40314Q316.90625 344.16876 316.53125 344.16876Q316.17188 344.16876 315.89062 344.3875Q315.625 344.59064 315.51562 344.96564Q315.32812 345.52814 315.32812 346.1844L315.32812 349.45L314.28125 349.45ZM322.35938 348.6844Q321.76562 349.1844 321.21875 349.3875Q320.6875 349.59064 320.0625 349.59064Q319.03125 349.59064 318.48438 349.09064Q317.9375 348.59064 317.9375 347.8094Q317.9375 347.35626 318.14062 346.98126Q318.34375 346.59064 318.6875 346.3719Q319.03125 346.1375 319.45312 346.02814Q319.75 345.9344 320.39062 345.85626Q321.65625 345.71564 322.26562 345.4969Q322.26562 345.27814 322.26562 345.23126Q322.26562 344.575 321.96875 344.3094Q321.5625 343.96564 320.76562 343.96564Q320.03125 343.96564 319.67188 344.23126Q319.3125 344.48126 319.14062 345.1375L318.10938 344.9969Q318.25 344.34064 318.57812 343.9344Q318.90625 343.52814 319.51562 343.3094Q320.125 343.09064 320.92188 343.09064Q321.71875 343.09064 322.21875 343.27814Q322.71875 343.46564 322.95312 343.7469Q323.1875 344.02814 323.28125 344.46564Q323.32812 344.73126 323.32812 345.4344L323.32812 346.84064Q323.32812 348.3094 323.39062 348.7Q323.46875 349.09064 323.67188 349.45L322.5625 349.45Q322.40625 349.1219 322.35938 348.6844ZM322.26562 346.325Q321.6875 346.5594 320.54688 346.73126Q319.89062 346.825 319.625 346.95Q319.35938 347.0594 319.20312 347.27814Q319.0625 347.4969 319.0625 347.77814Q319.0625 348.2 319.375 348.48126Q319.70312 348.7625 320.3125 348.7625Q320.92188 348.7625 321.39062 348.4969Q321.875 348.23126 322.09375 347.7625Q322.26562 347.40314 322.26562 346.71564L322.26562 346.325ZM325.09375 349.96564L326.125 350.1219Q326.1875 350.59064 326.48438 350.8094Q326.875 351.10626 327.54688 351.10626Q328.28125 351.10626 328.67188 350.8094Q329.07812 350.5125 329.21875 349.9969Q329.3125 349.66876 329.29688 348.6375Q328.60938 349.45 327.57812 349.45Q326.29688 349.45 325.59375 348.52814Q324.89062 347.59064 324.89062 346.3094Q324.89062 345.41876 325.20312 344.66876Q325.53125 343.90314 326.14062 343.4969Q326.75 343.09064 327.57812 343.09064Q328.6875 343.09064 329.40625 343.98126L329.40625 343.23126L330.375 343.23126L330.375 348.60626Q330.375 350.0594 330.07812 350.66876Q329.78125 351.27814 329.14062 351.6219Q328.5 351.98126 327.5625 351.98126Q326.45312 351.98126 325.76562 351.48126Q325.07812 350.98126 325.09375 349.96564ZM325.96875 346.23126Q325.96875 347.45 326.45312 348.0125Q326.9375 348.575 327.67188 348.575Q328.40625 348.575 328.89062 348.0125Q329.39062 347.45 329.39062 346.2625Q329.39062 345.1219 328.875 344.54376Q328.375 343.96564 327.65625 343.96564Q326.95312 343.96564 326.45312 344.54376Q325.96875 345.10626 325.96875 346.23126ZM336.54688 347.45L337.64062 347.575Q337.39062 348.52814 336.6875 349.0594Q335.98438 349.59064 334.90625 349.59064Q333.54688 349.59064 332.73438 348.7469Q331.9375 347.90314 331.9375 346.3875Q331.9375 344.825 332.75 343.96564Q333.5625 343.09064 334.84375 343.09064Q336.09375 343.09064 336.875 343.9344Q337.67188 344.77814 337.67188 346.325Q337.67188 346.41876 337.67188 346.60626L333.03125 346.60626Q333.09375 347.6375 333.60938 348.1844Q334.125 348.71564 334.90625 348.71564Q335.48438 348.71564 335.89062 348.41876Q336.3125 348.10626 336.54688 347.45ZM333.09375 345.7469L336.5625 345.7469Q336.5 344.95 336.17188 344.5594Q335.65625 343.95 334.85938 343.95Q334.125 343.95 333.625 344.4344Q333.14062 344.91876 333.09375 345.7469Z" fill-rule="nonzero"/><path fill="#000000" d="M462.92746 349.45L466.25558 344.96564L463.3337 340.85626L464.67746 340.85626L466.23996 343.0594Q466.72433 343.7469 466.92746 344.1219Q467.22433 343.65314 467.61496 343.1375L469.3337 340.85626L470.56808 340.85626L467.55246 344.90314L470.80246 349.45L469.3962 349.45L467.23996 346.3875Q467.05246 346.1219 466.86496 345.8094Q466.5837 346.27814 466.4587 346.45L464.30246 349.45L462.92746 349.45ZM477.44308 340.85626L478.5837 340.85626L478.5837 345.825Q478.5837 347.1219 478.28683 347.8875Q477.98996 348.6375 477.22433 349.1219Q476.4587 349.59064 475.22433 349.59064Q474.0212 349.59064 473.23996 349.1844Q472.47433 348.7625 472.1462 347.98126Q471.81808 347.1844 471.81808 345.825L471.81808 340.85626L472.9587 340.85626L472.9587 345.8094Q472.9587 346.9344 473.16183 347.46564Q473.38058 347.9969 473.88058 348.29376Q474.3962 348.575 475.13058 348.575Q476.38058 348.575 476.91183 348.0125Q477.44308 347.4344 477.44308 345.8094L477.44308 340.85626ZM480.75558 349.45L480.75558 340.85626L481.8962 340.85626L481.8962 348.4344L486.13058 348.4344L486.13058 349.45L480.75558 349.45Z" fill-rule="nonzero"/><path fill="#4285f4" d="M248.0 56.916668C248.0 56.364384 248.44771 55.916668 249.0 55.916668L259.0 55.916668C259.55228 55.916668 260.0 56.364384 260.0 56.916668L260.0 66.916664C260.0 67.46895 259.55228 67.916664 259.0 67.916664L249.0 67.916664C248.44771 67.916664 248.0 67.46895 248.0 66.916664Z" fill-rule="nonzero"/><path fill="#1a1a1a" d="M267.98438 65.916664L271.28125 57.322914L272.5 57.322914L276.01562 65.916664L274.73438 65.916664L273.71875 63.30729L270.14062 63.30729L269.1875 65.916664L267.98438 65.916664ZM270.46875 62.385414L273.375 62.385414L272.48438 60.010414Q272.0625 58.93229 271.875 58.229164Q271.70312 59.05729 271.40625 59.86979L270.46875 62.385414ZM276.79688 68.30729L276.79688 59.697914L277.75 59.697914L277.75 60.49479Q278.09375 60.02604 278.51562 59.791664Q278.95312 59.55729 279.5625 59.55729Q280.35938 59.55729 280.96875 59.96354Q281.57812 60.36979 281.875 61.11979Q282.1875 61.86979 282.1875 62.760414Q282.1875 63.71354 281.84375 64.479164Q281.51562 65.24479 280.85938 65.65104Q280.20312 66.05729 279.48438 66.05729Q278.95312 66.05729 278.53125 65.83854Q278.10938 65.604164 277.84375 65.27604L277.84375 68.30729L276.79688 68.30729ZM277.75 62.83854Q277.75 64.041664 278.23438 64.61979Q278.71875 65.18229 279.40625 65.18229Q280.10938 65.18229 280.60938 64.58854Q281.10938 63.99479 281.10938 62.74479Q281.10938 61.55729 280.625 60.979164Q280.14062 60.385414 279.45312 60.385414Q278.78125 60.385414 278.26562 61.010414Q277.75 61.635414 277.75 62.83854ZM283.79688 68.30729L283.79688 59.697914L284.75 59.697914L284.75 60.49479Q285.09375 60.02604 285.51562 59.791664Q285.95312 59.55729 286.5625 59.55729Q287.35938 59.55729 287.96875 59.96354Q288.57812 60.36979 288.875 61.11979Q289.1875 61.86979 289.1875 62.760414Q289.1875 63.71354 288.84375 64.479164Q288.51562 65.24479 287.85938 65.65104Q287.20312 66.05729 286.48438 66.05729Q285.95312 66.05729 285.53125 65.83854Q285.10938 65.604164 284.84375 65.27604L284.84375 68.30729L283.79688 68.30729ZM284.75 62.83854Q284.75 64.041664 285.23438 64.61979Q285.71875 65.18229 286.40625 65.18229Q287.10938 65.18229 287.60938 64.58854Q288.10938 63.99479 288.10938 62.74479Q288.10938 61.55729 287.625 60.979164Q287.14062 60.385414 286.45312 60.385414Q285.78125 60.385414 285.26562 61.010414Q284.75 61.635414 284.75 62.83854ZM290.76562 65.916664L290.76562 57.322914L291.82812 57.322914L291.82812 65.916664L290.76562 65.916664ZM298.04688 63.916664L299.14062 64.041664Q298.89062 64.99479 298.1875 65.52604Q297.48438 66.05729 296.40625 66.05729Q295.04688 66.05729 294.23438 65.21354Q293.4375 64.36979 293.4375 62.854164Q293.4375 61.291664 294.25 60.43229Q295.0625 59.55729 296.34375 59.55729Q297.59375 59.55729 298.375 60.40104Q299.17188 61.24479 299.17188 62.791664Q299.17188 62.885414 299.17188 63.072914L294.53125 63.072914Q294.59375 64.104164 295.10938 64.65104Q295.625 65.18229 296.40625 65.18229Q296.98438 65.18229 297.39062 64.885414Q297.8125 64.572914 298.04688 63.916664ZM294.59375 62.21354L298.0625 62.21354Q298.0 61.416664 297.67188 61.02604Q297.15625 60.416664 296.35938 60.416664Q295.625 60.416664 295.125 60.90104Q294.64062 61.385414 294.59375 62.21354Z" fill-rule="nonzero"/><path fill="#ea4335" d="M316.0 56.916668C316.0 56.364384 316.44772 55.916668 317.0 55.916668L327.0 55.916668C327.55228 55.916668 328.0 56.364384 328.0 56.916668L328.0 66.916664C328.0 67.46895 327.55228 67.916664 327.0 67.916664L317.0 67.916664C316.44772 67.916664 316.0 67.46895 316.0 66.916664Z" fill-rule="nonzero"/><path fill="#1a1a1a" d="M336.23438 65.916664L336.23438 65.05729L340.20312 60.510414Q339.51562 60.541664 339.0 60.541664L336.46875 60.541664L336.46875 59.697914L341.5625 59.697914L341.5625 60.385414L338.1875 64.33854L337.53125 65.05729Q338.25 65.010414 338.85938 65.010414L341.75 65.010414L341.75 65.916664L336.23438 65.916664ZM342.76562 65.916664L342.76562 57.322914L343.82812 57.322914L343.82812 65.916664L342.76562 65.916664ZM349.82812 65.916664L349.82812 65.135414Q349.23438 66.05729 348.09375 66.05729Q347.34375 66.05729 346.71875 65.65104Q346.09375 65.229164 345.75 64.49479Q345.40625 63.760414 345.40625 62.80729Q345.40625 61.885414 345.71875 61.11979Q346.03125 60.354164 346.65625 59.96354Q347.28125 59.55729 348.04688 59.55729Q348.60938 59.55729 349.04688 59.791664Q349.48438 60.02604 349.76562 60.40104L349.76562 57.322914L350.8125 57.322914L350.8125 65.916664L349.82812 65.916664ZM346.5 62.80729Q346.5 64.010414 347.0 64.604164Q347.5 65.18229 348.1875 65.18229Q348.875 65.18229 349.35938 64.61979Q349.84375 64.05729 349.84375 62.90104Q349.84375 61.61979 349.34375 61.02604Q348.85938 60.43229 348.14062 60.43229Q347.4375 60.43229 346.96875 61.010414Q346.5 61.572914 346.5 62.80729Z" fill-rule="nonzero"/><path fill="#757575" d="M23.7375 37.55L23.7375 24.925L19.01875 24.925L19.01875 23.2375L30.3625 23.2375L30.3625 24.925L25.628124 24.925L25.628124 37.55L23.7375 37.55ZM31.878124 25.253124L31.878124 23.2375L33.64375 23.2375L33.64375 25.253124L31.878124 25.253124ZM31.878124 37.55L31.878124 27.175L33.64375 27.175L33.64375 37.55L31.878124 37.55ZM35.8625 37.55L35.8625 27.175L37.440624 27.175L37.440624 28.628124Q37.925 27.878124 38.7375 27.409374Q39.55 26.940624 40.58125 26.940624Q41.7375 26.940624 42.471874 27.425Q43.20625 27.89375 43.51875 28.753124Q44.753124 26.940624 46.721874 26.940624Q48.26875 26.940624 49.096874 27.8Q49.925 28.659374 49.925 30.425L49.925 37.55L48.175 37.55L48.175 31.01875Q48.175 29.95625 48.003124 29.503124Q47.83125 29.034374 47.378124 28.753124Q46.940624 28.471874 46.33125 28.471874Q45.2375 28.471874 44.503124 29.20625Q43.784374 29.925 43.784374 31.51875L43.784374 37.55L42.034374 37.55L42.034374 30.815624Q42.034374 29.64375 41.596874 29.065624Q41.175 28.471874 40.190624 28.471874Q39.45625 28.471874 38.815624 28.8625Q38.190624 29.253124 37.909374 30.003124Q37.628124 30.753124 37.628124 32.175L37.628124 37.55L35.8625 37.55ZM59.971874 34.20625L61.784374 34.440624Q61.3625 36.01875 60.190624 36.909374Q59.034374 37.784374 57.221874 37.784374Q54.95625 37.784374 53.6125 36.39375Q52.284374 34.9875 52.284374 32.45625Q52.284374 29.83125 53.628124 28.39375Q54.971874 26.940624 57.128124 26.940624Q59.20625 26.940624 60.51875 28.3625Q61.846874 29.76875 61.846874 32.346874Q61.846874 32.503124 61.83125 32.815624L54.096874 32.815624Q54.190624 34.51875 55.065624 35.425Q55.940624 36.33125 57.2375 36.33125Q58.20625 36.33125 58.878124 35.83125Q59.565624 35.315624 59.971874 34.20625ZM54.190624 31.3625L59.9875 31.3625Q59.878124 30.065624 59.33125 29.409374Q58.4875 28.39375 57.14375 28.39375Q55.940624 28.39375 55.1125 29.20625Q54.284374 30.003124 54.190624 31.3625ZM73.70625 35.971874L73.95625 37.534374Q73.22188 37.690624 72.62813 37.690624Q71.675 37.690624 71.14375 37.39375Q70.62813 37.08125 70.40938 36.596874Q70.19063 36.096874 70.19063 34.51875L70.19063 28.55L68.90938 28.55L68.90938 27.175L70.19063 27.175L70.19063 24.6125L71.94063 23.55L71.94063 27.175L73.70625 27.175L73.70625 28.55L71.94063 28.55L71.94063 34.6125Q71.94063 35.3625 72.03438 35.58125Q72.12813 35.784374 72.33125 35.925Q72.55 36.05 72.94063 36.05Q73.22188 36.05 73.70625 35.971874ZM75.22188 32.3625Q75.22188 29.4875 76.81563 28.096874Q78.15938 26.940624 80.08125 26.940624Q82.22188 26.940624 83.56563 28.346874Q84.925 29.753124 84.925 32.221874Q84.925 34.221874 84.33125 35.378124Q83.7375 36.51875 82.58125 37.159374Q81.44063 37.784374 80.08125 37.784374Q77.89375 37.784374 76.55 36.39375Q75.22188 34.9875 75.22188 32.3625ZM77.01875 32.3625Q77.01875 34.3625 77.87813 35.346874Q78.75313 36.33125 80.08125 36.33125Q81.39375 36.33125 82.25313 35.346874Q83.12813 34.346874 83.12813 32.3Q83.12813 30.378124 82.25313 29.39375Q81.37813 28.39375 80.08125 28.39375Q78.75313 28.39375 77.87813 29.39375Q77.01875 30.378124 77.01875 32.3625ZM92.8625 41.51875L92.8625 27.175L94.47188 27.175L94.47188 28.51875Q95.03438 27.7375 95.7375 27.346874Q96.45625 26.940624 97.47188 26.940624Q98.8 26.940624 99.81563 27.628124Q100.83125 28.315624 101.34688 29.565624Q101.87813 30.8 101.87813 32.284374Q101.87813 33.878124 101.3 35.159374Q100.7375 36.425 99.64375 37.1125Q98.55 37.784374 97.34688 37.784374Q96.47188 37.784374 95.76875 37.409374Q95.08125 37.034374 94.62813 36.471874L94.62813 41.51875L92.8625 41.51875ZM94.45625 32.425Q94.45625 34.425 95.26875 35.378124Q96.08125 36.33125 97.2375 36.33125Q98.40938 36.33125 99.2375 35.346874Q100.08125 34.3625 100.08125 32.26875Q100.08125 30.3 99.25313 29.315624Q98.44063 28.315624 97.31563 28.315624Q96.19063 28.315624 95.31563 29.378124Q94.45625 30.425 94.45625 32.425ZM110.97188 34.20625L112.78438 34.440624Q112.3625 36.01875 111.19063 36.909374Q110.03438 37.784374 108.22188 37.784374Q105.95625 37.784374 104.6125 36.39375Q103.28438 34.9875 103.28438 32.45625Q103.28438 29.83125 104.62813 28.39375Q105.97188 26.940624 108.12813 26.940624Q110.20625 26.940624 111.51875 28.3625Q112.84688 29.76875 112.84688 32.346874Q112.84688 32.503124 112.83125 32.815624L105.09688 32.815624Q105.19063 34.51875 106.06563 35.425Q106.94063 36.33125 108.2375 36.33125Q109.20625 36.33125 109.87813 35.83125Q110.56563 35.315624 110.97188 34.20625ZM105.19063 31.3625L110.9875 31.3625Q110.87813 30.065624 110.33125 29.409374Q109.4875 28.39375 108.14375 28.39375Q106.94063 28.39375 106.1125 29.20625Q105.28438 30.003124 105.19063 31.3625ZM114.84688 37.55L114.84688 27.175L116.425 27.175L116.425 28.753124Q117.03438 27.64375 117.55 27.3Q118.06563 26.940624 118.675 26.940624Q119.56563 26.940624 120.4875 27.503124L119.87813 29.14375Q119.2375 28.753124 118.59688 28.753124Q118.01875 28.753124 117.55 29.1125Q117.09688 29.45625 116.89375 30.065624Q116.6125 31.003124 116.6125 32.1125L116.6125 37.55L114.84688 37.55ZM122.28438 37.55L122.28438 28.55L120.7375 28.55L120.7375 27.175L122.28438 27.175L122.28438 26.08125Q122.28438 25.034374 122.47188 24.51875Q122.72188 23.83125 123.3625 23.409374Q124.00313 22.9875 125.15938 22.9875Q125.90938 22.9875 126.8 23.159374L126.53438 24.690624Q125.9875 24.596874 125.50313 24.596874Q124.70625 24.596874 124.3625 24.940624Q124.03438 25.284374 124.03438 26.221874L124.03438 27.175L126.06563 27.175L126.06563 28.55L124.03438 28.55L124.03438 37.55L122.28438 37.55ZM127.22188 32.3625Q127.22188 29.4875 128.81563 28.096874Q130.15938 26.940624 132.08125 26.940624Q134.22188 26.940624 135.56563 28.346874Q136.925 29.753124 136.925 32.221874Q136.925 34.221874 136.33125 35.378124Q135.7375 36.51875 134.58125 37.159374Q133.44063 37.784374 132.08125 37.784374Q129.89375 37.784374 128.55 36.39375Q127.22188 34.9875 127.22188 32.3625ZM129.01875 32.3625Q129.01875 34.3625 129.87813 35.346874Q130.75313 36.33125 132.08125 36.33125Q133.39375 36.33125 134.25313 35.346874Q135.12813 34.346874 135.12813 32.3Q135.12813 30.378124 134.25313 29.39375Q133.37813 28.39375 132.08125 28.39375Q130.75313 28.39375 129.87813 29.39375Q129.01875 30.378124 129.01875 32.3625ZM138.84688 37.55L138.84688 27.175L140.425 27.175L140.425 28.753124Q141.03438 27.64375 141.55 27.3Q142.06563 26.940624 142.675 26.940624Q143.56563 26.940624 144.4875 27.503124L143.87813 29.14375Q143.2375 28.753124 142.59688 28.753124Q142.01875 28.753124 141.55 29.1125Q141.09688 29.45625 140.89375 30.065624Q140.6125 31.003124 140.6125 32.1125L140.6125 37.55L138.84688 37.55ZM145.8625 37.55L145.8625 27.175L147.44063 27.175L147.44063 28.628124Q147.925 27.878124 148.7375 27.409374Q149.55 26.940624 150.58125 26.940624Q151.7375 26.940624 152.47188 27.425Q153.20625 27.89375 153.51875 28.753124Q154.75313 26.940624 156.72188 26.940624Q158.26875 26.940624 159.09688 27.8Q159.925 28.659374 159.925 30.425L159.925 37.55L158.175 37.55L158.175 31.01875Q158.175 29.95625 158.00313 29.503124Q157.83125 29.034374 157.37813 28.753124Q156.94063 28.471874 156.33125 28.471874Q155.2375 28.471874 154.50313 29.20625Q153.78438 29.925 153.78438 31.51875L153.78438 37.55L152.03438 37.55L152.03438 30.815624Q152.03438 29.64375 151.59688 29.065624Q151.175 28.471874 150.19063 28.471874Q149.45625 28.471874 148.81563 28.8625Q148.19063 29.253124 147.90938 30.003124Q147.62813 30.753124 147.62813 32.175L147.62813 37.55L145.8625 37.55ZM168.83125 37.55L168.83125 23.2375L170.58125 23.2375L170.58125 37.55L168.83125 37.55ZM172.87813 25.253124L172.87813 23.2375L174.64375 23.2375L174.64375 25.253124L172.87813 25.253124ZM172.87813 37.55L172.87813 27.175L174.64375 27.175L174.64375 37.55L172.87813 37.55ZM176.8625 37.55L176.8625 27.175L178.45625 27.175L178.45625 28.659374Q179.59688 26.940624 181.75313 26.940624Q182.69063 26.940624 183.47188 27.284374Q184.26875 27.6125 184.65938 28.159374Q185.05 28.70625 185.20625 29.45625Q185.3 29.95625 185.3 31.175L185.3 37.55L183.53438 37.55L183.53438 31.2375Q183.53438 30.159374 183.33125 29.628124Q183.12813 29.096874 182.59688 28.784374Q182.08125 28.471874 181.37813 28.471874Q180.25313 28.471874 179.44063 29.190624Q178.62813 29.89375 178.62813 31.878124L178.62813 37.55L176.8625 37.55ZM187.87813 37.55L187.87813 23.2375L189.64375 23.2375L189.64375 31.39375L193.8 27.175L196.06563 27.175L192.1125 31.01875L196.47188 37.55L194.3 37.55L190.87813 32.253124L189.64375 33.440624L189.64375 37.55L187.87813 37.55ZM197.87813 25.253124L197.87813 23.2375L199.64375 23.2375L199.64375 25.253124L197.87813 25.253124ZM197.87813 37.55L197.87813 27.175L199.64375 27.175L199.64375 37.55L197.87813 37.55ZM201.8625 37.55L201.8625 27.175L203.45625 27.175L203.45625 28.659374Q204.59688 26.940624 206.75313 26.940624Q207.69063 26.940624 208.47188 27.284374Q209.26875 27.6125 209.65938 28.159374Q210.05 28.70625 210.20625 29.45625Q210.3 29.95625 210.3 31.175L210.3 37.55L208.53438 37.55L208.53438 31.2375Q208.53438 30.159374 208.33125 29.628124Q208.12813 29.096874 207.59688 28.784374Q207.08125 28.471874 206.37813 28.471874Q205.25313 28.471874 204.44063 29.190624Q203.62813 29.89375 203.62813 31.878124L203.62813 37.55L201.8625 37.55ZM212.55 38.409374L214.25313 38.659374Q214.3625 39.45625 214.84688 39.815624Q215.50313 40.3 216.64375 40.3Q217.8625 40.3 218.51875 39.815624Q219.19063 39.33125 219.425 38.45625Q219.56563 37.909374 219.55 36.190624Q218.39375 37.55 216.675 37.55Q214.53438 37.55 213.3625 36.003124Q212.19063 34.45625 212.19063 32.3Q212.19063 30.815624 212.72188 29.565624Q213.26875 28.315624 214.28438 27.628124Q215.31563 26.940624 216.69063 26.940624Q218.51875 26.940624 219.72188 28.425L219.72188 27.175L221.33125 27.175L221.33125 36.14375Q221.33125 38.565624 220.83125 39.565624Q220.34688 40.58125 219.26875 41.159374Q218.20625 41.753124 216.64375 41.753124Q214.8 41.753124 213.64375 40.925Q212.50313 40.096874 212.55 38.409374ZM214.00313 32.175Q214.00313 34.221874 214.81563 35.159374Q215.62813 36.096874 216.84688 36.096874Q218.05 36.096874 218.8625 35.159374Q219.69063 34.221874 219.69063 32.2375Q219.69063 30.33125 218.84688 29.3625Q218.00313 28.39375 216.81563 28.39375Q215.64375 28.39375 214.81563 29.346874Q214.00313 30.3 214.00313 32.175ZM224.33125 37.55L224.33125 35.55L226.33125 35.55L226.33125 37.55Q226.33125 38.659374 225.94063 39.33125Q225.55 40.01875 224.70625 40.378124L224.20625 39.628124Q224.76875 39.39375 225.03438 38.909374Q225.3 38.440624 225.33125 37.55L224.33125 37.55ZM235.8625 37.55L235.8625 27.175L237.44063 27.175L237.44063 28.628124Q237.925 27.878124 238.7375 27.409374Q239.55 26.940624 240.58125 26.940624Q241.7375 26.940624 242.47188 27.425Q243.20625 27.89375 243.51875 28.753124Q244.75313 26.940624 246.72188 26.940624Q248.26875 26.940624 249.09688 27.8Q249.925 28.659374 249.925 30.425L249.925 37.55L248.175 37.55L248.175 31.01875Q248.175 29.95625 248.00313 29.503124Q247.83125 29.034374 247.37813 28.753124Q246.94063 28.471874 246.33125 28.471874Q245.2375 28.471874 244.50313 29.20625Q243.78438 29.925 243.78438 31.51875L243.78438 37.55L242.03438 37.55L242.03438 30.815624Q242.03438 29.64375 241.59688 29.065624Q241.175 28.471874 240.19063 28.471874Q239.45625 28.471874 238.81563 28.8625Q238.19063 29.253124 237.90938 30.003124Q237.62813 30.753124 237.62813 32.175L237.62813 37.55L235.8625 37.55ZM252.15938 34.45625L253.90938 34.175Q254.05 35.221874 254.72188 35.784374Q255.39375 36.33125 256.59686 36.33125Q257.8 36.33125 258.3781 35.846874Q258.97186 35.346874 258.97186 34.690624Q258.97186 34.096874 258.45624 33.753124Q258.09686 33.51875 256.65936 33.159374Q254.72188 32.659374 253.97188 32.315624Q253.2375 31.95625 252.84688 31.33125Q252.45625 30.690624 252.45625 29.925Q252.45625 29.2375 252.76875 28.64375Q253.09688 28.05 253.64375 27.659374Q254.05 27.3625 254.75313 27.159374Q255.47188 26.940624 256.28436 26.940624Q257.5031 26.940624 258.425 27.3Q259.34686 27.64375 259.78436 28.253124Q260.22186 28.846874 260.39374 29.846874L258.675 30.08125Q258.55 29.284374 257.9875 28.846874Q257.425 28.39375 256.40936 28.39375Q255.19063 28.39375 254.675 28.8Q254.15938 29.190624 254.15938 29.721874Q254.15938 30.065624 254.37813 30.346874Q254.58125 30.628124 255.05 30.815624Q255.31563 30.909374 256.59686 31.253124Q258.47186 31.753124 259.20624 32.08125Q259.9406 32.39375 260.3625 33.003124Q260.78436 33.596874 260.78436 34.503124Q260.78436 35.378124 260.26874 36.159374Q259.7531 36.940624 258.78436 37.3625Q257.8156 37.784374 256.59686 37.784374Q254.58125 37.784374 253.51875 36.940624Q252.45625 36.096874 252.15938 34.45625ZM272.22186 41.753124Q270.76874 39.925 269.76874 37.471874Q268.76874 35.003124 268.76874 32.3625Q268.76874 30.034374 269.51874 27.909374Q270.39374 25.440624 272.22186 22.9875L273.4875 22.9875Q272.3 25.01875 271.925 25.89375Q271.33124 27.2375 270.9875 28.70625Q270.5656 30.534374 270.5656 32.378124Q270.5656 37.065624 273.4875 41.753124L272.22186 41.753124ZM275.83124 37.55L275.83124 23.2375L277.58124 23.2375L277.58124 37.55L275.83124 37.55ZM279.22186 32.3625Q279.22186 29.4875 280.8156 28.096874Q282.15936 26.940624 284.08124 26.940624Q286.22186 26.940624 287.5656 28.346874Q288.925 29.753124 288.925 32.221874Q288.925 34.221874 288.33124 35.378124Q287.7375 36.51875 286.58124 37.159374Q285.4406 37.784374 284.08124 37.784374Q281.89374 37.784374 280.55 36.39375Q279.22186 34.9875 279.22186 32.3625ZM281.01874 32.3625Q281.01874 34.3625 281.8781 35.346874Q282.7531 36.33125 284.08124 36.33125Q285.39374 36.33125 286.2531 35.346874Q287.1281 34.346874 287.1281 32.3Q287.1281 30.378124 286.2531 29.39375Q285.3781 28.39375 284.08124 28.39375Q282.7531 28.39375 281.8781 29.39375Q281.01874 30.378124 281.01874 32.3625ZM292.78436 37.55L289.6125 27.175L291.425 27.175L293.08124 33.159374L293.6906 35.39375Q293.7375 35.221874 294.22186 33.253124L295.8781 27.175L297.6906 27.175L299.2375 33.190624L299.7531 35.175L300.34686 33.175L302.1281 27.175L303.83124 27.175L300.59686 37.55L298.76874 37.55L297.1125 31.33125L296.72186 29.565624L294.6125 37.55L292.78436 37.55ZM311.97186 34.20625L313.78436 34.440624Q313.3625 36.01875 312.1906 36.909374Q311.03436 37.784374 309.22186 37.784374Q306.95624 37.784374 305.6125 36.39375Q304.28436 34.9875 304.28436 32.45625Q304.28436 29.83125 305.6281 28.39375Q306.97186 26.940624 309.1281 26.940624Q311.20624 26.940624 312.51874 28.3625Q313.84686 29.76875 313.84686 32.346874Q313.84686 32.503124 313.83124 32.815624L306.09686 32.815624Q306.1906 34.51875 307.0656 35.425Q307.9406 36.33125 309.2375 36.33125Q310.20624 36.33125 310.8781 35.83125Q311.5656 35.315624 311.97186 34.20625ZM306.1906 31.3625L311.9875 31.3625Q311.8781 30.065624 311.33124 29.409374Q310.4875 28.39375 309.14374 28.39375Q307.9406 28.39375 307.1125 29.20625Q306.28436 30.003124 306.1906 31.3625ZM315.84686 37.55L315.84686 27.175L317.425 27.175L317.425 28.753124Q318.03436 27.64375 318.55 27.3Q319.0656 26.940624 319.675 26.940624Q320.5656 26.940624 321.4875 27.503124L320.8781 29.14375Q320.2375 28.753124 319.59686 28.753124Q319.01874 28.753124 318.55 29.1125Q318.09686 29.45625 317.89374 30.065624Q317.6125 31.003124 317.6125 32.1125L317.6125 37.55L315.84686 37.55ZM328.8781 25.253124L328.8781 23.2375L330.64374 23.2375L330.64374 25.253124L328.8781 25.253124ZM328.8781 37.55L328.8781 27.175L330.64374 27.175L330.64374 37.55L328.8781 37.55ZM332.15936 34.45625L333.90936 34.175Q334.05 35.221874 334.72186 35.784374Q335.39374 36.33125 336.59686 36.33125Q337.8 36.33125 338.3781 35.846874Q338.97186 35.346874 338.97186 34.690624Q338.97186 34.096874 338.45624 33.753124Q338.09686 33.51875 336.65936 33.159374Q334.72186 32.659374 333.97186 32.315624Q333.2375 31.95625 332.84686 31.33125Q332.45624 30.690624 332.45624 29.925Q332.45624 29.2375 332.76874 28.64375Q333.09686 28.05 333.64374 27.659374Q334.05 27.3625 334.7531 27.159374Q335.47186 26.940624 336.28436 26.940624Q337.5031 26.940624 338.425 27.3Q339.34686 27.64375 339.78436 28.253124Q340.22186 28.846874 340.39374 29.846874L338.675 30.08125Q338.55 29.284374 337.9875 28.846874Q337.425 28.39375 336.40936 28.39375Q335.1906 28.39375 334.675 28.8Q334.15936 29.190624 334.15936 29.721874Q334.15936 30.065624 334.3781 30.346874Q334.58124 30.628124 335.05 30.815624Q335.3156 30.909374 336.59686 31.253124Q338.47186 31.753124 339.20624 32.08125Q339.9406 32.39375 340.3625 33.003124Q340.78436 33.596874 340.78436 34.503124Q340.78436 35.378124 340.26874 36.159374Q339.7531 36.940624 338.78436 37.3625Q337.8156 37.784374 336.59686 37.784374Q334.58124 37.784374 333.51874 36.940624Q332.45624 36.096874 332.15936 34.45625ZM350.4875 37.55L348.8625 37.55L348.8625 23.2375L350.6125 23.2375L350.6125 28.346874Q351.7375 26.940624 353.45624 26.940624Q354.40936 26.940624 355.26874 27.33125Q356.1281 27.721874 356.675 28.425Q357.22186 29.1125 357.53436 30.096874Q357.84686 31.08125 357.84686 32.20625Q357.84686 34.878124 356.53436 36.33125Q355.22186 37.784374 353.3781 37.784374Q351.53436 37.784374 350.4875 36.253124L350.4875 37.55ZM350.47186 32.284374Q350.47186 34.14375 350.97186 34.9875Q351.8156 36.33125 353.22186 36.33125Q354.3781 36.33125 355.20624 35.33125Q356.05 34.33125 356.05 32.346874Q356.05 30.315624 355.2375 29.3625Q354.4406 28.39375 353.3 28.39375Q352.14374 28.39375 351.3 29.39375Q350.47186 30.39375 350.47186 32.284374ZM366.97186 34.20625L368.78436 34.440624Q368.3625 36.01875 367.1906 36.909374Q366.03436 37.784374 364.22186 37.784374Q361.95624 37.784374 360.6125 36.39375Q359.28436 34.9875 359.28436 32.45625Q359.28436 29.83125 360.6281 28.39375Q361.97186 26.940624 364.1281 26.940624Q366.20624 26.940624 367.51874 28.3625Q368.84686 29.76875 368.84686 32.346874Q368.84686 32.503124 368.83124 32.815624L361.09686 32.815624Q361.1906 34.51875 362.0656 35.425Q362.9406 36.33125 364.2375 36.33125Q365.20624 36.33125 365.8781 35.83125Q366.5656 35.315624 366.97186 34.20625ZM361.1906 31.3625L366.9875 31.3625Q366.8781 30.065624 366.33124 29.409374Q365.4875 28.39375 364.14374 28.39375Q362.9406 28.39375 362.1125 29.20625Q361.28436 30.003124 361.1906 31.3625ZM374.70624 35.971874L374.95624 37.534374Q374.22186 37.690624 373.6281 37.690624Q372.675 37.690624 372.14374 37.39375Q371.6281 37.08125 371.40936 36.596874Q371.1906 36.096874 371.1906 34.51875L371.1906 28.55L369.90936 28.55L369.90936 27.175L371.1906 27.175L371.1906 24.6125L372.9406 23.55L372.9406 27.175L374.70624 27.175L374.70624 28.55L372.9406 28.55L372.9406 34.6125Q372.9406 35.3625 373.03436 35.58125Q373.1281 35.784374 373.33124 35.925Q373.55 36.05 373.9406 36.05Q374.22186 36.05 374.70624 35.971874ZM380.70624 35.971874L380.95624 37.534374Q380.22186 37.690624 379.6281 37.690624Q378.675 37.690624 378.14374 37.39375Q377.6281 37.08125 377.40936 36.596874Q377.1906 36.096874 377.1906 34.51875L377.1906 28.55L375.90936 28.55L375.90936 27.175L377.1906 27.175L377.1906 24.6125L378.9406 23.55L378.9406 27.175L380.70624 27.175L380.70624 28.55L378.9406 28.55L378.9406 34.6125Q378.9406 35.3625 379.03436 35.58125Q379.1281 35.784374 379.33124 35.925Q379.55 36.05 379.9406 36.05Q380.22186 36.05 380.70624 35.971874ZM389.97186 34.20625L391.78436 34.440624Q391.3625 36.01875 390.1906 36.909374Q389.03436 37.784374 387.22186 37.784374Q384.95624 37.784374 383.6125 36.39375Q382.28436 34.9875 382.28436 32.45625Q382.28436 29.83125 383.6281 28.39375Q384.97186 26.940624 387.1281 26.940624Q389.20624 26.940624 390.51874 28.3625Q391.84686 29.76875 391.84686 32.346874Q391.84686 32.503124 391.83124 32.815624L384.09686 32.815624Q384.1906 34.51875 385.0656 35.425Q385.9406 36.33125 387.2375 36.33125Q388.20624 36.33125 388.8781 35.83125Q389.5656 35.315624 389.97186 34.20625ZM384.1906 31.3625L389.9875 31.3625Q389.8781 30.065624 389.33124 29.409374Q388.4875 28.39375 387.14374 28.39375Q385.9406 28.39375 385.1125 29.20625Q384.28436 30.003124 384.1906 31.3625ZM393.84686 37.55L393.84686 27.175L395.425 27.175L395.425 28.753124Q396.03436 27.64375 396.55 27.3Q397.0656 26.940624 397.675 26.940624Q398.5656 26.940624 399.4875 27.503124L398.8781 29.14375Q398.2375 28.753124 397.59686 28.753124Q397.01874 28.753124 396.55 29.1125Q396.09686 29.45625 395.89374 30.065624Q395.6125 31.003124 395.6125 32.1125L395.6125 37.55L393.84686 37.55ZM402.01874 41.753124L400.76874 41.753124Q403.675 37.065624 403.675 32.378124Q403.675 30.534374 403.26874 28.7375Q402.925 27.26875 402.33124 25.925Q401.95624 25.034374 400.76874 22.9875L402.01874 22.9875Q403.8625 25.440624 404.7375 27.909374Q405.4875 30.034374 405.4875 32.3625Q405.4875 35.003124 404.47186 37.471874Q403.47186 39.925 402.01874 41.753124Z" fill-rule="nonzero"/></svg>